<svg id="Layer_1" enable-background="new 0 0 510 510" height="512" viewBox="0 0 510 510" width="512" xmlns="http://www.w3.org/2000/svg"><g><path d="m419.361 289.951h-23.318c-20.607 0-40.564-6.042-57.712-17.474l-20.345-13.563c-20.655-13.77-32.986-36.81-32.986-61.635v-147.431c0-24.756-20.141-44.896-44.896-44.896h-210.104v115h15v68.485c0 17.899-4.868 35.473-14.076 50.82l-16.951 28.251c-9.141 15.235-13.973 32.68-13.973 50.447v186.996h165v-18.378l134.575 13.841c21.271 3.097 42.79 4.636 64.331 4.635 45.923 0 91.912-6.994 135.61-20.794l10.484-3.311v-100.354c0-49.979-40.66-90.639-90.639-90.639zm-359.361-255h105v42.485c0 6.9-5.614 12.515-12.515 12.515h-92.485zm-30 283.004c0-12.331 3.354-24.438 9.698-35.012l16.951-28.251c12.005-20.009 18.351-42.921 18.351-66.255v-68.485h77.485c23.443 0 42.515-19.072 42.515-42.515v-42.486h45.104c8.214 0 14.896 6.683 14.896 14.896v15.104h-30v30h30v30h-30v30h30v30h-30v30h31.513c1.666 9.719 4.689 19.079 8.941 27.83l-28.924 19.791 16.94 24.76 28.857-19.744c5.595 6.098 11.957 11.581 19.018 16.288l6.515 4.343-15.866 27.614 26.012 14.945 15.212-26.476c19.303 10.261 40.771 15.649 62.825 15.649h23.318c33.437 0 60.639 27.202 60.639 60.639v18.215c-57.006 16.347-117.751 20.461-176.402 11.879l-107.506-15.732h-166.092zm273.598 152.729-168.598-17.355v21.622h-105v-50h163.909l105.345 15.416c21.374 3.128 43.004 4.683 64.652 4.682 39.138 0 78.319-5.099 116.094-15.142v28.898c-57.007 16.346-117.755 20.46-176.402 11.879z"/></g></svg>