<svg id="Capa_1" enable-background="new 0 0 512 512" height="512" viewBox="0 0 512 512" width="512" xmlns="http://www.w3.org/2000/svg"><g><g fill="#8ac9fe"><path d="m156.641 383.498c0 16.376-13.276 29.652-29.652 29.652s-29.652-13.276-29.652-29.652c0-15.353 15.511-36.203 24.096-46.567 2.889-3.487 8.223-3.487 11.112 0 8.586 10.364 24.096 31.213 24.096 46.567z"/><path d="m285.652 383.498c0 16.376-13.276 29.652-29.652 29.652s-29.652-13.276-29.652-29.652c0-15.353 15.511-36.203 24.096-46.567 2.889-3.487 8.223-3.487 11.112 0 8.585 10.364 24.096 31.213 24.096 46.567z"/><path d="m414.662 383.498c0 16.376-13.276 29.652-29.652 29.652s-29.652-13.276-29.652-29.652c0-15.353 15.511-36.203 24.096-46.567 2.889-3.487 8.223-3.487 11.112 0 8.585 10.364 24.096 31.213 24.096 46.567z"/></g><g fill="#8ac9fe"><path d="m221.146 482.323c0 16.376-13.276 29.652-29.652 29.652s-29.652-13.276-29.652-29.652c0-15.353 15.511-36.203 24.096-46.567 2.889-3.487 8.223-3.487 11.112 0 8.586 10.364 24.096 31.214 24.096 46.567z"/><path d="m350.157 482.323c0 16.376-13.276 29.652-29.652 29.652s-29.652-13.276-29.652-29.652c0-15.353 15.511-36.203 24.096-46.567 2.889-3.487 8.223-3.487 11.112 0 8.585 10.364 24.096 31.214 24.096 46.567z"/></g><g fill="#60b7ff"><path d="m136.99 411.418c-3.13 1.12-6.49 1.73-10 1.73-16.38 0-29.65-13.27-29.65-29.65 0-15.35 15.51-36.2 24.09-46.57 2.89-3.49 8.23-3.49 11.12 0 1.34 1.62 2.85 3.5 4.44 5.57-8.61 11.18-19.65 28.05-19.65 41 0 12.87 8.19 23.82 19.65 27.92z"/><path d="m266 411.418c-3.13 1.12-6.49 1.73-10 1.73-16.38 0-29.65-13.27-29.65-29.65 0-15.35 15.51-36.2 24.09-46.57 2.89-3.49 8.23-3.49 11.12 0 1.34 1.62 2.85 3.5 4.44 5.57-8.61 11.18-19.65 28.05-19.65 41 0 12.87 8.19 23.82 19.65 27.92z"/><path d="m395.01 411.418c-3.13 1.12-6.49 1.73-10 1.73-16.38 0-29.65-13.27-29.65-29.65 0-15.35 15.51-36.2 24.09-46.57 2.89-3.49 8.23-3.49 11.12 0 1.34 1.62 2.85 3.5 4.44 5.57-8.61 11.18-19.65 28.05-19.65 41 0 12.87 8.19 23.82 19.65 27.92z"/></g><g fill="#60b7ff"><path d="m201.49 510.248c-3.12 1.12-6.49 1.73-10 1.73-16.37 0-29.65-13.28-29.65-29.66 0-15.35 15.51-36.2 24.1-46.56 2.89-3.49 8.22-3.49 11.11 0 1.34 1.62 2.85 3.49 4.45 5.55-8.61 11.18-19.66 28.05-19.66 41.01 0 12.87 8.2 23.83 19.65 27.93z"/><path d="m330.51 510.248c-3.13 1.12-6.49 1.73-10 1.73-16.38 0-29.66-13.28-29.66-29.66 0-15.35 15.51-36.2 24.1-46.56 2.89-3.49 8.22-3.49 11.11 0 1.34 1.62 2.85 3.49 4.45 5.55-8.61 11.18-19.66 28.05-19.66 41.01 0 12.87 8.2 23.83 19.66 27.93z"/></g><g><g><path d="m433.952 135.169h-35.109c-5.369-75.535-68.341-135.147-145.242-135.147-60.097 0-111.685 36.407-133.927 88.367-5.683-.98-11.525-1.496-17.488-1.496-56.436-.001-102.186 45.749-102.186 102.185s45.75 102.186 102.186 102.186h331.766c43.105 0 78.048-34.943 78.048-78.048 0-43.104-34.943-78.047-78.048-78.047z" fill="#ecf6fe"/></g></g><g><g><path d="m279.365 2.298c-48.8 8.695-89.193 41.722-108.179 86.092-5.687-.979-11.528-1.494-17.492-1.494-56.433 0-102.184 45.75-102.184 102.184s45.75 102.184 102.184 102.184h-51.509c-56.435 0-102.185-45.75-102.185-102.183s45.75-102.184 102.184-102.184c5.965 0 11.806.515 17.492 1.494 22.242-51.963 73.833-88.369 133.924-88.369 8.787 0 17.399.783 25.765 2.276z" fill="#dbebfc"/></g></g></g></svg>