<svg id="Layer_1" enable-background="new 0 0 512 512" height="512" viewBox="0 0 512 512" width="512" xmlns="http://www.w3.org/2000/svg"><g><path d="m272 24.484v-8.484c0-8.836-7.164-16-16-16s-16 7.164-16 16v8.484c-129.068 7.545-240 107.148-240 239.516 0 11.591 12.003 19.392 22.621 14.566 71.884-32.674 118.544 5.899 125.277 12.01 5.547 6.478 15.352 7.425 22.02 2.002 1.29-1.045 1.498-1.574 4.939-4.249 14.597-11.333 37.387-20.937 65.143-23.572v191.243c0 30.878 25.122 56 56 56s56-25.122 56-56c0-8.836-7.164-16-16-16s-16 7.164-16 16c0 13.234-10.766 24-24 24s-24-10.766-24-24v-191.242c28.008 2.658 51.02 12.44 65.522 23.87 3.091 2.439 3.194 2.821 4.388 3.823 7.243 5.795 16.818 4.383 22.176-1.854 6.926-6.276 53.548-44.644 125.294-12.031 10.551 4.796 22.62-2.901 22.62-14.566 0-132.385-110.951-231.972-240-239.516zm-95.365 225.341c3.845-88.743 24.446-136.416 42.004-161.256 15.753-22.288 31.121-29.721 37.379-31.966 5.779 2.108 20.203 9.025 35.182 28.997 18.5 24.667 40.217 72.771 44.167 164.226-47.499-23.937-111.477-23.707-158.732-.001zm-143.201-9.438c10.441-85.442 76.859-155.338 164.269-177.234-38.978 49.23-50.578 124.114-53.103 186.838-34.613-18.322-73.57-20.795-111.166-9.604zm333.966 9.604c-2.526-62.752-14.132-137.613-53.103-186.838 87.41 21.896 153.828 91.793 164.269 177.234-37.577-11.187-76.543-8.724-111.166 9.604z"/></g></svg>